<?xml version="1.0" encoding="UTF-8" standalone="no"?>
<!-- Created with Inkscape (http://www.inkscape.org/) -->

<svg
   xmlns:dc="http://purl.org/dc/elements/1.1/"
   xmlns:cc="http://creativecommons.org/ns#"
   xmlns:rdf="http://www.w3.org/1999/02/22-rdf-syntax-ns#"
   xmlns:svg="http://www.w3.org/2000/svg"
   xmlns="http://www.w3.org/2000/svg"
   xmlns:sodipodi="http://sodipodi.sourceforge.net/DTD/sodipodi-0.dtd"
   xmlns:inkscape="http://www.inkscape.org/namespaces/inkscape"
   width="86.606735mm"
   height="7.6749072mm"
   viewBox="0 0 86.606735 7.6749072"
   id="svg4630"
   version="1.1"
   inkscape:version="0.91+devel+osxmenu r12922"
   sodipodi:docname="divider-2.svg">
  <defs
     id="defs4632" />
  <sodipodi:namedview
     id="base"
     pagecolor="#ffffff"
     bordercolor="#666666"
     borderopacity="1.0"
     inkscape:pageopacity="0.0"
     inkscape:pageshadow="2"
     inkscape:zoom="0.35"
     inkscape:cx="-267.7623"
     inkscape:cy="357.3609"
     inkscape:document-units="mm"
     inkscape:current-layer="layer1"
     showgrid="false"
     fit-margin-top="0"
     fit-margin-left="0"
     fit-margin-right="0"
     fit-margin-bottom="0"
     inkscape:window-width="1080"
     inkscape:window-height="675"
     inkscape:window-x="0"
     inkscape:window-y="23"
     inkscape:window-maximized="0" />
  <metadata
     id="metadata4635">
    <rdf:RDF>
      <cc:Work
         rdf:about="">
        <dc:format>image/svg+xml</dc:format>
        <dc:type
           rdf:resource="http://purl.org/dc/dcmitype/StillImage" />
        <dc:title></dc:title>
      </cc:Work>
    </rdf:RDF>
  </metadata>
  <g
     inkscape:label="Layer 1"
     inkscape:groupmode="layer"
     id="layer1"
     transform="translate(-54.970441,-235.71016)">
    <g
       id="g4623"
       transform="matrix(0.3527778,0,0,0.3527778,-24.694336,202.16633)">
      <path
         style="fill:#1c232b;fill-opacity:1;fill-rule:nonzero;stroke:none"
         d="m 341.50781,101.35938 c -0.54687,0.41015 -1.03906,0.25 -1.51172,0.0625 -0.59375,-0.23438 -1.19922,-0.47266 -1.75781,-0.78516 -5.19141,-2.898439 -10.65625,-3.01172 -16.25781,-1.601564 -4.50781,1.132814 -8.73828,2.992184 -12.91797,4.980474 -5.21484,2.48437 -10.35547,5.13281 -15.68359,7.375 -10.98829,4.6289 -22.36719,5.98828 -34.16016,4.34765 -5.49219,-0.76562 -10.86328,-1.92187 -16.04297,-3.92578 -6.49219,-2.51172 -11.85156,-6.375 -15.23828,-12.628906 -0.43359,-0.796875 -1.0625,-1.449219 -1.66016,-2.117188 -0.30078,-0.339844 -0.61328,-0.707031 -0.36718,-1.199218 0.23828,-0.480469 0.73437,-0.476563 1.17578,-0.476563 1.87109,0 3.52734,0.605469 4.96093,1.808594 0.7461,0.625 1.37891,1.359375 1.88282,2.179687 2.95703,4.828124 7.35156,7.816404 12.54297,9.746094 14.15234,5.25781 28.32812,5.60547 42.54687,0.20313 6.30859,-2.39844 12.33984,-5.42579 18.55078,-8.05079 4.79688,-2.02734 9.67578,-3.859371 14.8711,-4.562496 6.13281,-0.828125 12.05859,-0.246094 17.44921,3.148437 0.6211,0.390629 1.38282,0.671879 1.61719,1.496099"
         id="path4286"
         inkscape:connector-curvature="0" />
      <path
         style="fill:#1c232b;fill-opacity:1;fill-rule:nonzero;stroke:none"
         d="m 327.53906,100.32031 c 3.13281,-0.0391 5.90625,1 8.41797,2.82032 0.20703,0.15234 0.41406,0.30859 0.59375,0.48828 0.35156,0.35156 0.9375,0.80468 0.56641,1.25 -0.46485,0.5664 -0.83985,-0.13282 -1.23828,-0.39844 -2.32032,-1.55078 -4.85547,-1.94531 -7.53125,-1.21094 -3.11329,0.85547 -6.00391,2.23438 -8.80079,3.82031 -2.84765,1.61719 -5.7539,3.10938 -8.85546,4.19141 -1.02344,0.35938 -2.07813,0.64453 -3.13672,0.89063 -0.75,0.17578 -1.53516,0.20312 -2.28125,-0.0781 -0.46094,-0.17969 -1.05078,-0.27344 -1.07032,-0.9375 -0.0156,-0.54687 0.45313,-0.73828 0.84766,-0.9375 5.08984,-2.57422 9.83984,-5.78906 15.05078,-8.14453 2.64844,-1.19531 5.03906,-1.72656 7.4375,-1.75391"
         id="path4288"
         inkscape:connector-curvature="0" />
      <path
         style="fill:#1c232b;fill-opacity:1;fill-rule:nonzero;stroke:none"
         d="m 355.60547,101.39844 c 0.54687,0.41015 1.03906,0.25781 1.51562,0.0703 0.59375,-0.23437 1.19922,-0.46875 1.75782,-0.77734 5.20703,-2.867191 10.67578,-2.953129 16.26953,-1.511722 4.5,1.160152 8.72265,3.039062 12.89062,5.050782 5.20313,2.51172 10.32422,5.1875 15.64063,7.46094 10.96484,4.6875 22.33593,6.10937 34.14062,4.53125 5.49219,-0.73438 10.8711,-1.86328 16.0586,-3.83594 6.50781,-2.47656 11.88671,-6.3125 15.30859,-12.546876 0.44141,-0.796875 1.07031,-1.441406 1.67187,-2.109375 0.30469,-0.335938 0.61719,-0.703125 0.375,-1.195313 -0.23828,-0.484375 -0.73437,-0.484375 -1.17578,-0.484375 -1.87109,-0.01172 -3.52734,0.585938 -4.97265,1.78125 -0.7461,0.621094 -1.38282,1.351563 -1.89063,2.171879 -2.98437,4.8125 -7.39453,7.77343 -12.59375,9.67578 -14.18359,5.17969 -28.35937,5.45312 -42.55078,-0.0273 -6.29687,-2.43359 -12.30859,-5.49609 -18.50391,-8.15234 -4.78906,-2.054688 -9.65625,-3.910156 -14.84375,-4.640625 -6.13281,-0.867187 -12.0625,-0.3125 -17.47265,3.050781 -0.6211,0.390624 -1.38672,0.664064 -1.625,1.488284"
         id="path4290"
         inkscape:connector-curvature="0" />
      <path
         style="fill:#1c232b;fill-opacity:1;fill-rule:nonzero;stroke:none"
         d="m 369.58203,100.43359 c -3.13281,-0.0547 -5.91016,0.96875 -8.43359,2.77735 -0.20703,0.14844 -0.41407,0.30469 -0.59375,0.48437 -0.35938,0.34766 -0.94532,0.79688 -0.57813,1.2461 0.46094,0.5664 0.83985,-0.12891 1.2461,-0.39453 2.32812,-1.53907 4.86328,-1.91407 7.53515,-1.16407 3.10547,0.86719 5.98828,2.26172 8.77735,3.86719 2.83984,1.62891 5.74218,3.13672 8.83203,4.23828 1.02343,0.36328 2.07812,0.65235 3.13672,0.90625 0.75,0.17969 1.53125,0.21094 2.27734,-0.0664 0.46484,-0.17579 1.05469,-0.26563 1.07422,-0.92969 0.0234,-0.54688 -0.44531,-0.74219 -0.83594,-0.94141 -5.08203,-2.60547 -9.8125,-5.84375 -15.00781,-8.22656 -2.64453,-1.21094 -5.03125,-1.75391 -7.42969,-1.79688"
         id="path4292"
         inkscape:connector-curvature="0" />
      <path
         style="fill:#1c232b;fill-opacity:1;fill-rule:nonzero;stroke:none"
         d="m 352.50391,101.00391 c -0.16016,1.39453 -0.31641,2.98828 -0.53516,4.57031 -0.0937,0.69141 -0.28125,1.37109 -0.62891,1.99609 -1.07422,1.94532 -2.85547,2.19532 -4.39062,0.59375 -0.25781,-0.27343 -0.50391,-0.59375 -0.66406,-0.93359 -1.20704,-2.58594 -1.97266,-5.26563 -1.57032,-8.16797 0.3086,-2.203125 1.46875,-3.675781 3.09375,-3.933594 1.69532,-0.269531 3.17578,0.707032 4.21094,2.691406 0.5,0.957032 0.51953,1.960938 0.48438,3.183598"
         id="path4294"
         inkscape:connector-curvature="0" />
    </g>
  </g>
</svg>
